:SAMPLES-PER-SECOND 30
:FULLY-SPECIFIED
:DEGREES
559
root  0.193562 34.4539 28.4367 4.25959 16.309 -0.606125
LeftUpLeg  -12.8704 5.1989 5.12017
LeftLeg  9.95339 -4.1352 -0.455199
LeftFoot  8.13712 0.0220509 -0.549745
LeftToes  -22.672 2.60077e-006 -1.42232e-007
Spine  2.08126 4.05139 -0.0230504
Spine1  3.84269 8.55444 -0.345373
RightShoulder  0.0611605 6.79718 1.87459
RightArm  -50.0703 7.04797 69.9613
RightForeArm  154.903 73.4431 142.926
RightHand  0.145179 -1.4956 -10.6715
LeftShoulder1  0.0149099 1.54376 -9.74888
LeftArm  -24.6607 16.7732 -69.2353
LeftForeArm  31.5281 -16.2159 -2.93163
LeftHand  0.0740332 3.86279 1.8219
HEad  -4.90147 -25.315 -1.5958
RightUpLeg  -7.23353 -9.08507 0.0110412
RightLeg  11.6336 -2.85188 -0.396632
RightFoot  -0.897423 -0.00818186 0.093948
RightToes  -28.0702 -0.128235 -0.236462
560
root  0.136541 34.4581 28.4278 4.14007 16.5845 -0.68679
LeftUpLeg  -12.8306 5.04139 5.27749
LeftLeg  9.85755 -4.24445 -0.459985
LeftFoot  8.33544 0.0238548 -0.585703
LeftToes  -22.9369 2.60077e-006 -1.42232e-007
Spine  2.1303 4.04436 -0.019121
Spine1  3.91273 8.51405 -0.324657
RightShoulder  0.0656329 7.3055 1.94815
RightArm  -50.9068 5.32338 68.7474
RightForeArm  142.686 76.7228 130.696
RightHand  0.0635372 -0.711833 -9.74154
LeftShoulder1  0.0166977 1.49439 -9.70985
LeftArm  -24.1874 14.7875 -68.9519
LeftForeArm  30.1049 -17.5719 -3.19339
LeftHand  0.0804079 3.55411 2.21696
HEad  -5.55782 -25.751 -1.2263
RightUpLeg  -7.11695 -9.095 0.174745
RightLeg  11.5561 -3.1036 -0.427413
RightFoot  -0.854612 -0.00804534 0.091323
RightToes  -28.0088 -0.12733 -0.235861
561
root  0.0883231 34.4672 28.4223 4.08202 16.7831 -0.78884
LeftUpLeg  -12.7732 4.92328 5.44223
LeftLeg  9.63949 -4.31782 -0.451275
LeftFoot  8.52275 0.02526 -0.613936
LeftToes  -22.9556 2.60077e-006 -1.42232e-007
Spine  2.16382 3.97678 -0.00714732
Spine1  3.97006 8.3627 -0.301818
RightShoulder  0.0703272 7.43797 2.9886
RightArm  -45.7307 2.27089 65.7903
RightForeArm  123.184 79.4957 105.678
RightHand  -0.108081 1.20532 -9.93149
LeftShoulder1  0.0179697 1.63448 -9.55157
LeftArm  -23.5136 13.1295 -68.8136
LeftForeArm  29.074 -19.1252 -3.49791
LeftHand  0.0803512 3.23098 2.47316
HEad  -6.40967 -25.8701 -0.870717
RightUpLeg  -6.94786 -9.16141 0.353908
RightLeg  11.2159 -3.24724 -0.427557
RightFoot  -0.67114 -0.00727566 0.0789314
RightToes  -28.0044 -0.126405 -0.235291
562
root  0.0438126 34.4726 28.4173 4.08606 16.8043 -0.897522
LeftUpLeg  -12.7406 5.00311 5.60388
LeftLeg  9.41176 -4.41234 -0.44338
LeftFoot  8.68475 0.0268374 -0.643251
LeftToes  -23.0795 2.60077e-006 -1.42232e-007
Spine  2.18721 3.90898 0.0290484
Spine1  4.03005 8.20577 -0.220531
RightShoulder  0.073367 7.00483 4.34985
RightArm  -36.0512 -0.41311 61.6219
RightForeArm  91.6104 78.7712 63.6914
RightHand  -0.390671 3.421 -12.68
LeftShoulder1  0.0187772 1.88484 -9.35753
LeftArm  -22.668 11.7261 -68.8066
LeftForeArm  28.4334 -20.8019 -3.8331
LeftHand  0.0805245 2.90458 2.79873
HEad  -7.28293 -25.7681 -0.879995
RightUpLeg  -6.90865 -9.26484 0.546032
RightLeg  10.983 -3.20762 -0.409055
RightFoot  -0.572015 -0.0066854 0.069352
RightToes  -27.8022 -0.125481 -0.234759
563
root  0.00166315 34.4716 28.4122 4.09447 16.7212 -0.960491
LeftUpLeg  -12.6583 4.89757 5.74645
LeftLeg  9.15168 -4.23792 -0.406496
LeftFoot  8.85005 0.0259447 -0.63252
LeftToes  -23.245 2.60077e-006 -1.42232e-007
Spine  2.20726 3.84088 0.0437952
Spine1  4.08242 8.04233 -0.168651
RightShoulder  0.0751783 6.54066 5.389
RightArm  -26.845 -1.73894 57.4355
RightForeArm  73.3374 73.5018 36.7937
RightHand  -0.784132 5.59872 -15.5812
LeftShoulder1  0.0191719 2.0419 -9.12598
LeftArm  -21.8982 10.7027 -68.8117
LeftForeArm  28.223 -22.8482 -4.25262
LeftHand  0.0790523 2.61817 3.08017
HEad  -7.90809 -25.5901 -1.12399
RightUpLeg  -7.04248 -9.34362 0.681061
RightLeg  11.1345 -3.05681 -0.398023
RightFoot  -0.625283 -0.00661223 0.0677903
RightToes  -27.6252 -0.12458 -0.234274
